PathFileType	4	(X/Y/Z)	/Users/itak/Documents/Research/Walk-IL/dataset/trc/00112_00007.trc
DataRate	CameraRate	NumFrames	NumMarkers	Units	OrigDataRate	OrigDataStartFrame	OrigNumFrames
100.000000	100.000000	4	53	mm	100.000000	0	560
Frame#	Time	RPSI			LPSI			L3			STRN			T10			C7			CLAV			RBAK			LBAK			LSHO			LUPA			LAEL			LAOL			LWTS			LWPS			LFRA			LIFD			LHPS			LHTS			RSHO			RUPA			RAEL			RAOL			RWTS			RWPS			RFRA			RIFD			RHTS			RHPS			RBHD			LFHD			RFHD			LBHD			LHIP			RHIP			RASI			LASI			LKNE			LTHI			LANK			LTIP			LTOE			LMT1			LMT5			LHEE			RKNE			RTHI			RANK			RTIP			RTOE			RMT1			RMT5			RHEE			
		X1	Y1	Z1	X2	Y2	Z2	X3	Y3	Z3	X4	Y4	Z4	X5	Y5	Z5	X6	Y6	Z6	X7	Y7	Z7	X8	Y8	Z8	X9	Y9	Z9	X10	Y10	Z10	X11	Y11	Z11	X12	Y12	Z12	X13	Y13	Z13	X14	Y14	Z14	X15	Y15	Z15	X16	Y16	Z16	X17	Y17	Z17	X18	Y18	Z18	X19	Y19	Z19	X20	Y20	Z20	X21	Y21	Z21	X22	Y22	Z22	X23	Y23	Z23	X24	Y24	Z24	X25	Y25	Z25	X26	Y26	Z26	X27	Y27	Z27	X28	Y28	Z28	X29	Y29	Z29	X30	Y30	Z30	X31	Y31	Z31	X32	Y32	Z32	X33	Y33	Z33	X34	Y34	Z34	X35	Y35	Z35	X36	Y36	Z36	X37	Y37	Z37	X38	Y38	Z38	X39	Y39	Z39	X40	Y40	Z40	X41	Y41	Z41	X42	Y42	Z42	X43	Y43	Z43	X44	Y44	Z44	X45	Y45	Z45	X46	Y46	Z46	X47	Y47	Z47	X48	Y48	Z48	X49	Y49	Z49	X50	Y50	Z50	X51	Y51	Z51	X52	Y52	Z52	X53	Y53	Z53	

1	0	499.7178039550781	1122.215209960938	-267.8988952636719	494.8046569824219	1122.275268554688	-402.5755615234375	488.7474975585938	1155.612915039062	-337.819091796875	697.8977661132812	1367.356567382812	-346.70068359375	444.6393432617188	1304.196899414062	-339.6504821777344	467.2960815429688	1597.790771484375	-359.3194885253906	656.4475708007812	1500.527099609375	-351.5435180664062	422.1022033691406	1413.327758789062	-267.1431579589844	458.6442260742188	1576.14404296875	-460.2658081054688	545.69287109375	1564.679443359375	-528.7168579101562	531.0858154296875	1432.047973632812	-597.3442993164062	558.2980346679688	1212.58056640625	-613.9393920898438	487.8915405273438	1199.349609375	-563.240234375	661.8082275390625	959.9365234375	-553.090087890625	584.4578247070312	930.5963134765625	-589.1077270507812	580.037109375	1097.357666015625	-613.2915649414062	675.0208740234375	766.2369384765625	-525.2852172851562	615.1646728515625	855.9166259765625	-585.0819091796875	680.6215209960938	870.949951171875	-560.6168212890625	526.1835327148438	1584.033325195312	-177.6812591552734	513.9864501953125	1510.909545898438	-112.4902725219727	517.7034301757812	1216.5869140625	-87.96711730957031	510.4054870605469	1213.786010742188	-183.4965515136719	674.5582885742188	983.3489990234375	-105.4323654174805	602.1632080078125	961.52734375	-69.35225677490234	545.889404296875	1144.708862304688	-72.4708251953125	707.3349609375	788.6940307617188	-120.3835754394531	709.0900268554688	875.226806640625	-99.0950927734375	644.39501953125	864.2007446289062	-65.72927093505859	502.7896423339844	1775.311157226562	-288.8623352050781	671.3775634765625	1839.911010742188	-414.6385498046875	663.7353515625	1848.44287109375	-285.2510070800781	500.6366577148438	1770.248046875	-423.9967041015625	587.2349243164062	1038.001586914062	-512.0464477539062	634.20458984375	1033.535034179688	-154.2072601318359	710.0296020507812	1110.898193359375	-210.2757568359375	693.3603515625	1109.546875	-476.9566040039062	636.3883666992188	537.6597290039062	-483.192138671875	607.8502807617188	682.6923828125	-508.9257507324219	514.3902587890625	35.15793228149414	-471.3831787109375	530.4386596679688	289.8606567382812	-504.8990478515625	748.7990112304688	36.58751678466797	-424.0801391601562	668.5093994140625	41.46191787719727	-386.6600952148438	638.1455688476562	33.10234832763672	-501.29296875	448.1905212402344	36.58570861816406	-407.3318176269531	639.379150390625	541.1078491210938	-184.5606536865234	663.2191772460938	826.4137573242188	-162.845703125	530.7850952148438	29.25885391235352	-191.6133270263672	613.7291259765625	407.0190734863281	-169.909423828125	762.1287841796875	43.02872848510742	-249.6439514160156	699.7781372070312	30.03179740905762	-291.0665283203125	665.84521484375	38.68862533569336	-174.6250762939453	471.8267822265625	31.8322868347168	-239.2425689697266	
2	0.01	500.0627136230469	1122.209228515625	-267.973388671875	495.1087341308594	1122.264282226562	-402.6028137207031	489.0801696777344	1155.582275390625	-337.8847351074219	698.138671875	1367.308471679688	-346.6701354980469	444.8781433105469	1304.163208007812	-339.7208862304688	467.470947265625	1597.713623046875	-359.3562927246094	656.596435546875	1500.457763671875	-351.5380249023438	422.2919921875	1413.21142578125	-267.186767578125	458.8985900878906	1576.12890625	-460.2937316894531	545.8954467773438	1564.624755859375	-528.7099609375	531.4428100585938	1432.042114257812	-597.3778686523438	558.6470947265625	1212.567626953125	-613.9577026367188	488.1990661621094	1199.329467773438	-563.3212280273438	662.2141723632812	959.973876953125	-553.057861328125	584.9126586914062	930.5842895507812	-589.1419677734375	580.396728515625	1097.338012695312	-613.3304443359375	675.5977783203125	766.2221069335938	-525.2493286132812	615.6652221679688	855.915771484375	-585.078125	681.0455322265625	870.989501953125	-560.55810546875	526.2545776367188	1583.938598632812	-177.6962127685547	514.0687866210938	1510.78955078125	-112.5126495361328	517.8710327148438	1216.4482421875	-88.03716278076172	510.5574035644531	1213.673828125	-183.5787658691406	674.6185913085938	983.2105712890625	-105.4345474243164	602.234130859375	961.3839111328125	-69.45867919921875	545.967041015625	1144.586303710938	-72.57723236083984	707.402587890625	788.5601806640625	-120.4692459106445	709.1889038085938	875.0780029296875	-99.13292694091797	644.5913696289062	864.0762329101562	-65.76818084716797	502.8596801757812	1775.230712890625	-288.842529296875	671.3470458984375	1839.95947265625	-414.6788635253906	663.7122192382812	1848.53662109375	-285.2955627441406	500.6653442382812	1770.12939453125	-423.9569091796875	587.6223754882812	1037.976684570312	-512.0517578125	634.3809204101562	1033.507080078125	-154.2394866943359	710.298095703125	1110.906494140625	-210.2496490478516	693.7073974609375	1109.524169921875	-476.9188842773438	636.5277099609375	537.6177978515625	-483.2014770507812	608.0596923828125	682.6705322265625	-508.9406433105469	514.3915405273438	35.15878295898438	-471.3828735351562	530.5037231445312	289.8699035644531	-504.9009399414062	748.8133544921875	36.53568267822266	-424.0525512695312	668.5121459960938	41.45512390136719	-386.6548156738281	638.1402587890625	33.10444641113281	-501.2955627441406	448.1947021484375	36.59663009643555	-407.3301696777344	639.4867553710938	541.0993041992188	-184.5505981445312	663.4439086914062	826.4530639648438	-162.8702239990234	530.7901611328125	29.26763916015625	-191.6167297363281	613.7930908203125	407.0225830078125	-169.9039306640625	762.146728515625	43.01033020019531	-249.6699829101562	699.785888671875	30.01309013366699	-291.0789489746094	665.8546142578125	38.69690704345703	-174.6361389160156	471.8393859863281	31.85695266723633	-239.2572937011719	
3	0.02	500.4920654296875	1122.200561523438	-268.0675964355469	495.4939270019531	1122.250244140625	-402.65087890625	489.5058898925781	1155.540405273438	-337.9623718261719	698.4364624023438	1367.251220703125	-346.6233825683594	445.1764831542969	1304.12451171875	-339.805419921875	467.6822204589844	1597.623046875	-359.4054260253906	656.786376953125	1500.37451171875	-351.5185241699219	422.5323486328125	1413.077880859375	-267.2479553222656	459.2081298828125	1576.097778320312	-460.3343811035156	546.1559448242188	1564.561157226562	-528.6986083984375	531.8766479492188	1432.031494140625	-597.4177856445312	559.092041015625	1212.5439453125	-613.9873657226562	488.5904541015625	1199.299926757812	-563.4205932617188	662.7268676757812	960.01708984375	-553.0264282226562	585.4774169921875	930.5660400390625	-589.1796875	580.8531494140625	1097.310668945312	-613.3809814453125	676.271240234375	766.2084350585938	-525.1981811523438	616.2822265625	855.9185180664062	-585.0762329101562	681.5902099609375	871.0382080078125	-560.493896484375	526.3429565429688	1583.82373046875	-177.7161865234375	514.1693725585938	1510.64013671875	-112.5439529418945	518.0759887695312	1216.281005859375	-88.13201141357422	510.7539978027344	1213.548583984375	-183.7054138183594	674.6727905273438	982.993408203125	-105.4193344116211	602.3084106445312	961.2086791992188	-69.59951782226562	546.0625610351562	1144.434204101562	-72.7100830078125	707.4711303710938	788.390380859375	-120.5768966674805	709.2981567382812	874.8916015625	-99.18444061279297	644.808349609375	863.9235229492188	-65.82652282714844	502.9483947753906	1775.131225585938	-288.8139038085938	671.3129272460938	1840.022338867188	-414.7313842773438	663.69287109375	1848.647827148438	-285.3508911132812	500.7032165527344	1769.988891601562	-423.9066467285156	588.1084594726562	1037.944213867188	-512.056640625	634.599853515625	1033.473022460938	-154.2788543701172	710.6279296875	1110.914306640625	-210.2224884033203	694.1287231445312	1109.484741210938	-476.8684387207031	636.7047729492188	537.5664672851562	-483.208984375	608.323974609375	682.6421508789062	-508.9577331542969	514.3938598632812	35.16013717651367	-471.3820495605469	530.5830078125	289.8801879882812	-504.904296875	748.830078125	36.4803581237793	-424.0247192382812	668.5157470703125	41.44807815551758	-386.6492309570312	638.1359252929688	33.10716247558594	-501.2958068847656	448.1989135742188	36.60762786865234	-407.3280029296875	639.6171875	541.0869750976562	-184.5418090820312	663.7018432617188	826.4774780273438	-162.8871612548828	530.7954711914062	29.27938461303711	-191.6211547851562	613.8693237304688	407.025634765625	-169.9002075195312	762.1683959960938	42.98600769042969	-249.7020111083984	699.7957153320312	29.98699951171875	-291.0946044921875	665.8655395507812	38.70619201660156	-174.6502380371094	471.8572082519531	31.88690567016602	-239.2752532958984	
4	0.03	500.9847106933594	1122.188842773438	-268.1768188476562	495.9443664550781	1122.233764648438	-402.7246398925781	490.0089111328125	1155.4873046875	-338.0462036132812	698.7747192382812	1367.188720703125	-346.5601806640625	445.5206298828125	1304.082641601562	-339.9004211425781	467.9185791015625	1597.525024414062	-359.4664001464844	657.0114135742188	1500.28369140625	-351.4792785644531	422.8154602050781	1412.936889648438	-267.3275756835938	459.5558776855469	1576.046508789062	-460.3880615234375	546.4688720703125	1564.493774414062	-528.6827392578125	532.3626098632812	1432.013793945312	-597.4610595703125	559.6129760742188	1212.505981445312	-614.0283813476562	489.0533142089844	1199.259887695312	-563.53173828125	663.3275756835938	960.0621337890625	-553.0000610351562	586.1277465820312	930.5404663085938	-589.2175903320312	581.3932495117188	1097.276245117188	-613.4407958984375	676.9976196289062	766.1973876953125	-525.1337890625	616.9869384765625	855.9244995117188	-585.0779418945312	682.2351684570312	871.0886840820312	-560.4305419921875	526.4452514648438	1583.694946289062	-177.7407379150391	514.2828369140625	1510.468872070312	-112.5844573974609	518.305419921875	1216.095336914062	-88.2525634765625	510.9896240234375	1213.421875	-183.8794097900391	674.7100219726562	982.690185546875	-105.3822860717773	602.3760986328125	961.0116577148438	-69.77278137207031	546.1728515625	1144.260131835938	-72.86438751220703	707.5310668945312	788.1900634765625	-120.7023468017578	709.405517578125	874.6758422851562	-99.24988555908203	645.0208129882812	863.7496948242188	-65.90715026855469	503.0533142089844	1775.017578125	-288.7759094238281	671.2786254882812	1840.097778320312	-414.7945556640625	663.683349609375	1848.76904296875	-285.4148559570312	500.7500610351562	1769.83642578125	-423.8475036621094	588.6671142578125	1037.90478515625	-512.0601196289062	634.8541870117188	1033.43505859375	-154.3216400146484	710.9998168945312	1110.918823242188	-210.1977691650391	694.603759765625	1109.426513671875	-476.80859375	636.9110107421875	537.5084838867188	-483.2133483886719	608.629638671875	682.6093139648438	-508.9739074707031	514.3973999023438	35.16208267211914	-471.3805541992188	530.6718139648438	289.8910217285156	-504.9091796875	748.8477172851562	36.42401123046875	-423.9997253417969	668.52001953125	41.44126129150391	-386.6434631347656	638.1331787109375	33.11018371582031	-501.2931213378906	448.2030944824219	36.61816024780273	-407.3252258300781	639.7626342773438	541.0709228515625	-184.5366973876953	663.96923828125	826.475341796875	-162.8888854980469	530.8003540039062	29.29338264465332	-191.6270751953125	613.9528198242188	407.0281372070312	-169.9004211425781	762.1925048828125	42.95616149902344	-249.7390289306641	699.8074340820312	29.95422554016113	-291.1127624511719	665.876953125	38.7151985168457	-174.6670227050781	471.879638671875	31.92009353637695	-239.2958831787109	
